<svg xmlns="http://www.w3.org/2000/svg" width="214.924" height="373.56" viewBox="0 0 214.924 373.56">
  <g id="Group_4" data-name="Group 4" transform="translate(-1616.093)">
    <ellipse id="Ellipse_11" data-name="Ellipse 11" cx="35" cy="6" rx="35" ry="6" transform="translate(1685.85 361.56)" fill="#00a9a5"/>
    <path id="Path_143" data-name="Path 143" d="M748.742,369.265a47.636,47.636,0,0,1,37.62-46.565,47.628,47.628,0,1,0,.008,93.133,47.639,47.639,0,0,1-37.628-46.568Z" transform="translate(946.093 -262)" fill="#00a9a5"/>
    <path id="Path_144" data-name="Path 144" d="M696.908,369.265A106.474,106.474,0,0,1,790.362,263.6,106.5,106.5,0,0,0,670.908,369.265c0,47.756,70.231,182.425,96.608,231.32a11.19,11.19,0,0,0,19.706,0c.987-1.83,2.043-3.794,3.147-5.855C761.974,541.717,696.908,415.234,696.908,369.265Z" transform="translate(946.093 -262)" fill="#00a9a5"/>
    <path id="Path_145" data-name="Path 145" d="M777.461,607.667a12.027,12.027,0,0,1-10.732-6.411C737.645,547.345,670,416.837,670,369.462a107.462,107.462,0,1,1,214.924,0c0,47.38-67.645,177.884-96.729,231.794A12.027,12.027,0,0,1,777.461,607.667Zm0-343.667A105.581,105.581,0,0,0,672,369.462c0,46.92,67.477,177.066,96.488,230.845a10.191,10.191,0,0,0,17.946,0c29.012-53.776,96.489-183.92,96.489-230.845A105.581,105.581,0,0,0,777.462,264Z" transform="translate(946.093 -262)" fill="#3f3d56"/>
    <path id="Path_146" data-name="Path 146" d="M777.462,418.089a48.628,48.628,0,1,1,48.627-48.627,48.628,48.628,0,0,1-48.627,48.627Zm0-95.255a46.628,46.628,0,1,0,46.627,46.628,46.628,46.628,0,0,0-46.627-46.628Z" transform="translate(946.093 -262)" fill="#3f3d56"/>
  </g>
</svg>
