<svg xmlns="http://www.w3.org/2000/svg" width="870.66" height="688.954" viewBox="0 0 870.66 688.954"><g transform="translate(0)"><path d="M80.859,603l-9.5,71h19Z" fill="#3f3d56"/><path d="M70.859,609l-9.5,71h19Z" fill="#3f3d56"/><path d="M58.859,609l-9.5,71h19Z" fill="#3f3d56"/><path d="M652.859,581l-9.5,71h19Z" fill="#3f3d56"/><path d="M665.859,581l-9.5,71h19Z" fill="#3f3d56"/><path d="M675.859,596l-9.5,71h19Z" fill="#3f3d56"/><path d="M688.859,596l-9.5,71h19Z" fill="#3f3d56"/><path d="M744.859,607l-9.5,71h19Z" fill="#3f3d56"/><path d="M757.859,607l-9.5,71h19Z" fill="#3f3d56"/><path d="M775.889,682h-16.06l.54-4,3.38-25.26.11-.87,4-29.87,4.38,32.75,2.12,15.83Z" fill="#3f3d56"/><path d="M788.889,682h-16.06l1.53-11.42,1.99-14.84,4.51-33.74,4.82,36.04v.01l1.41,10.53Z" fill="#3f3d56"/><path d="M802.419,682H785.3l1.79-13.42,1.32-9.85,5.45-40.73,5.84,43.62.66,4.96Z" fill="#3f3d56"/><path d="M815.419,682H798.3l2.06-15.42.62-4.63,5.88-43.95,6,44.87.32,2.34Z" fill="#3f3d56"/><path d="M823.419,682H810.3l2.27-16.95.29-2.18,4-29.87,4.61,34.49,1.89,14.09Z" fill="#3f3d56"/><path d="M836.419,682H823.3l.06-.42,1.75-13.08,4.75-35.5,5.13,38.31Z" fill="#3f3d56"/><circle cx="95.5" cy="95.5" r="95.5" transform="translate(0.359)" fill="#fef849"/><path d="M1035.03,793.523h-870s176.64-67.87,436.81-67.1c1.46,0,2.92.01,4.38.02q7.785.045,15.66.17,6.165.105,12.38.26c1.79.04,3.58.09,5.38.14l2.14.06c1.65.05,3.31.1,4.98.16,3.13.1,6.27.22,9.42.34q4.14.165,8.32.36c1.06.04,2.14.09,3.21.15q7.575.345,15.21.8l3.55.21c1.63.09,3.27.2,4.9.3q3.24.21,6.48.43c2.81.19,5.61.39,8.42.6q8.82.645,17.74,1.42c4.42.37,8.85.78,13.3,1.2q2.835.27,5.69.56,4.365.42,8.75.89l5.59.6c2.25.24,4.49.49,6.74.75s4.5.52,6.75.79,4.52.543,6.78.82,4.53.56,6.8.86c2.24.28,4.48.58,6.73.88q14.37,1.905,28.95,4.15c1.86.28,3.74.57,5.61.87q2.895.45,5.81.93,4.05.645,8.13,1.34c2.33.39,4.66.78,7,1.19,2.11.36,4.24.73,6.36,1.11l.66.12c2.34.41,4.69.84,7.03,1.27s4.71.87,7.06,1.31,4.72.89,7.08,1.35,4.73.92,7.1,1.39l5.54,1.11c.92.19,1.84.37,2.76.56q2.97.615,5.96,1.24,3.57.75,7.15,1.51c.27.06.53.12.8.17q5.55,1.2,11.11,2.44c.5.11,1.01.23,1.52.34q2.91.645,5.82,1.32c1.94.45,3.88.89,5.83,1.35a2.037,2.037,0,0,1,.24.05c2.75.64,5.49,1.29,8.25,1.96q2.055.48,4.11.99c1.88.45,3.75.91,5.63,1.38,1.23.31,2.46.62,3.7.93.91.21,1.82.44,2.73.68q2.88.705,5.77,1.46,2.685.69,5.37,1.39a.83.83,0,0,1,.15.04l1.28.33c1.31.34,2.62.69,3.94,1.04,1.35.36,2.71.72,4.07,1.09,1.19.32,2.39.64,3.58.97a.3.3,0,0,1,.1.02c.17.04.34.09.51.14,1.38.37,2.76.74,4.14,1.13s2.76.76,4.15,1.15c.14.03.28.07.42.11q1.6.435,3.21.9s0-.01.01,0c.61.16,1.22.34,1.83.51q2.445.69,4.89,1.39c1.05.3,2.11.6,3.16.91,2.93.85,5.87,1.7,8.81,2.57s5.89,1.75,8.83,2.64c1.77.53,3.53,1.07,5.3,1.62q2.49.75,4.98,1.53C1030.06,791.963,1032.55,792.733,1035.03,793.523Z" transform="translate(-164.67 -105.523)" fill="#e6e6e6"/><path d="M1034.73,794.477c-246.236-77.948-469.512-73.795-613.458-56.585-155.947,18.644-254.9,56.188-255.885,56.565l-.718-1.867c.984-.378,100.173-38.011,256.365-56.685a1486.936,1486.936,0,0,1,276.89-7.083,1444.324,1444.324,0,0,1,337.405,63.748Z" transform="translate(-164.67 -105.523)" fill="#3f3d56"/><circle cx="163.5" cy="163.5" r="163.5" transform="translate(543.359 35.951)" fill="#00a9a5"/><path d="M993.15,195.769A163.513,163.513,0,0,1,720.711,368.812,163.514,163.514,0,1,0,993.15,195.769Z" transform="translate(-164.67 -105.523)" opacity="0.2"/><path d="M707.308,199.451h.449L715.842,663H698.774Z" fill="#3f3d56"/><rect width="8.085" height="30.544" transform="translate(733.312 444.791) rotate(62.234)" fill="#3f3d56"/><path d="M422.456,287.5l48.875,11.185,20.65-38.948-41.792-16.316Z" fill="#2f2e41"/><path d="M613.093,602.687s-15.711,36-15.711,46.478c0,0,6.219,28.476,4.255,36.331l-6.874,14.729-14.4-5.892-3.928-39.277.655-62.844Z" transform="translate(-164.67 -105.523)" fill="#ffb9b9"/><path d="M621.93,387.317s1.309,21.6-1.309,28.149,9.819,18.984,9.819,18.984l19.639-25.53s-13.092-13.092-9.819-27.494Z" transform="translate(-164.67 -105.523)" fill="#ffb9b9"/><path d="M583.962,439.032v34.695L581.016,536.9s-18.984,35.349-.655,32.731,12.11-33.713,12.11-33.713l6.219-61.862-.327-37.641Z" transform="translate(-164.67 -105.523)" fill="#ffb9b9"/><path d="M576.761,689.752l28.149-11.129,3.273,55.643s5.892,17.02,3.928,23.566c0,0,1.309,11.128-1.964,11.783s-12.438,1.964-13.092,1.309-.655-2.618-.655-2.618-6.546,4.582-7.2,9.819c0,0-27.494,8.51-28.149.655s13.747-14.4,13.747-14.4l11.128-17.02Z" transform="translate(-164.67 -105.523)" fill="#2f2e41"/><path d="M671.681,602.687s-15.711,36-15.711,46.478c0,0,6.219,28.476,4.255,36.331l-6.874,14.729-14.4-5.892-3.928-39.277.655-62.844Z" transform="translate(-164.67 -105.523)" fill="#ffb9b9"/><path d="M636.332,689.752l28.148-11.129,3.273,55.643s5.892,17.02,3.928,23.566c0,0,1.309,11.128-1.964,11.783s-12.438,1.964-13.092,1.309-.655-2.618-.655-2.618-6.546,4.582-7.2,9.819c0,0-27.494,8.51-28.149.655s13.747-14.4,13.747-14.4l11.128-17.02Z" transform="translate(-164.67 -105.523)" fill="#2f2e41"/><circle cx="20.948" cy="20.948" r="20.948" transform="translate(442.858 245.789)" fill="#ffb9b9"/><path d="M631.095,414.156l16.256-8.442,7.311,5.823s17.675-.655,24.221,7.2,10.147,27.822,10.147,27.822-21.6-4.582-18.984,13.747l-3.928-10.474-3.6,8.837-43.86,15.056-19.639-33.386s-13.092-3.928-17.675,5.237c0,0,.982-33.058,13.747-34.04,8.585-.66,15.056-.655,15.056-.655l7.2-1.309,4.611-1.637Z" transform="translate(-164.67 -105.523)" fill="#00a9a5"/><path d="M667,412s-10.014,27.98,1.588,40.6l-9.672,33.238s34.368,103.1,24.548,117.5c0,0-36.659,18.329-109.976-6.546l29.785-115.541-4.255-48.769,5.892-22.912L618,408.265s-7.855,29.458,6.546,34.04S653,409,653,409Z" transform="translate(-164.67 -105.523)" fill="#2f2e41"/><path d="M667.426,439.032v34.695L664.48,536.9s-18.984,35.349-.655,32.731,12.11-33.713,12.11-33.713l4.582-62.189,1.309-37.313Z" transform="translate(-164.67 -105.523)" fill="#ffb9b9"/><path d="M689.029,446.56s-2.327-33.618-21.784-33.5v38.878S681.828,443.287,689.029,446.56Z" transform="translate(-164.67 -105.523)" fill="#00a9a5"/><path d="M616.649,342.94s-10.827,2.037-13.331,15.54a24.786,24.786,0,0,0-.212,6.895c.25,2.6-.113,8.089-5.756,14.553a141.515,141.515,0,0,0-10.276,13.2h0l11.313,3.012,5.055-18.744a95.889,95.889,0,0,1,11.2-25.753l.1-.167s3.758,10.04,13.829,11.416l-3.105-4.088s11.773,6.806,18.443,8.885a4.383,4.383,0,0,1,1.414,7.621l-.145.112c-4.906,3.726-14.915,12.618-10.961,21.219s-.657,10.169-.657,10.169l8.5-3.235,3.892-1.667-.393,2.877,19,.4s5.134-.031-3.985-13.735c0,0-2.2-5.138-.394-9.064a20.852,20.852,0,0,0,2.106-9.555C661.721,359.012,655.9,330.9,616.649,342.94Z" transform="translate(-164.67 -105.523)" fill="#2f2e41"/><ellipse cx="6.546" cy="5.892" rx="6.546" ry="5.892" transform="matrix(0.135, -0.991, 0.991, 0.135, 458.451, 270.164)" fill="#2f2e41"/><ellipse cx="6.546" cy="5.892" rx="6.546" ry="5.892" transform="matrix(0.135, -0.991, 0.991, 0.135, 443.533, 268.125)" fill="#2f2e41"/><rect width="13.352" height="2" transform="translate(470.384 263.54) rotate(-3.539)" fill="#2f2e41"/><rect width="2" height="6.547" transform="matrix(0.135, -0.991, 0.991, 0.135, 454.013, 263.96)" fill="#2f2e41"/><path d="M481.181,772.447s.691-14.47,14.847-12.788" transform="translate(-164.67 -105.523)" fill="#3f3d56"/><circle cx="7.085" cy="7.085" r="7.085" transform="translate(305.427 638.984)" fill="#00a9a5"/><rect width="2" height="14" transform="translate(311.359 658)" fill="#3f3d56"/><path d="M739.181,775.447s.691-14.47,14.847-12.788" transform="translate(-164.67 -105.523)" fill="#3f3d56"/><circle cx="7.085" cy="7.085" r="7.085" transform="translate(563.427 641.984)" fill="#00a9a5"/><rect width="2" height="14" transform="translate(569.359 661)" fill="#3f3d56"/><path d="M314.181,750.447s.691-14.47,14.847-12.788" transform="translate(-164.67 -105.523)" fill="#3f3d56"/><circle cx="7.085" cy="7.085" r="7.085" transform="translate(138.427 616.984)" fill="#00a9a5"/><rect width="2" height="14" transform="translate(144.359 636)" fill="#3f3d56"/><path d="M423.181,731.447s.691-14.47,14.847-12.788" transform="translate(-164.67 -105.523)" fill="#3f3d56"/><circle cx="7.085" cy="7.085" r="7.085" transform="translate(247.427 597.984)" fill="#00a9a5"/><rect width="2" height="14" transform="translate(253.359 617)" fill="#3f3d56"/><path d="M696.181,758.447s.691-14.47,14.847-12.788" transform="translate(-164.67 -105.523)" fill="#3f3d56"/><circle cx="7.085" cy="7.085" r="7.085" transform="translate(520.427 624.984)" fill="#00a9a5"/><rect width="2" height="14" transform="translate(526.359 644)" fill="#3f3d56"/><path d="M497.823,144.989l9.206-7.363c-7.151-.789-10.09,3.111-11.293,6.2-5.587-2.32-11.669.72-11.669.72l18.419,6.687a13.938,13.938,0,0,0-4.663-6.243Z" transform="translate(-164.67 -105.523)" fill="#3f3d56"/><path d="M637.823,219.989l9.206-7.363c-7.151-.789-10.09,3.111-11.292,6.2-5.587-2.32-11.669.72-11.669.72l18.419,6.687a13.938,13.938,0,0,0-4.663-6.243Z" transform="translate(-164.67 -105.523)" fill="#3f3d56"/><path d="M486.823,283.989l9.206-7.363c-7.151-.789-10.09,3.111-11.293,6.2-5.587-2.32-11.669.72-11.669.72l18.419,6.687a13.938,13.938,0,0,0-4.663-6.243Z" transform="translate(-164.67 -105.523)" fill="#3f3d56"/></g></svg>