<svg xmlns="http://www.w3.org/2000/svg" width="1099.073" height="826.313" viewBox="0 0 1099.073 826.313"><g transform="translate(0 0)"><path d="M860.056,819.844c-71.873,15.89-165.928,12.886-266.853.117-82.552-10.444-175.65-36.566-251.21-66.976A49.842,49.842,0,0,1,371.008,738.6c.308-.047.627-.092.943-.127a70.51,70.51,0,0,1,16.772,0c70.564,7.921,57.614,46.545,152.8,3.227,59.2-26.94,122.879-30.731,164.923-21.582.775.169,1.539.341,2.3.518,24.32,5.674,40.953,15.78,44.549,28.228,9.816,33.955-34.119,54.567,41.291,56.055C815.516,805.338,838.957,814.678,860.056,819.844Z" transform="translate(-50.464 -36.844)" fill="#3f3d56"/><path d="M1148.1,859.285c-28.855-2.333-57.649-6.759-86.345-10.486q-60.684-7.881-121.3-16.244c-80.115-10.965-160.181-22.279-240.27-33.427Q579.207,782.29,458.166,765.939q-112.2-15.163-224.491-29.664c-56.19-7.17-112.418-14.1-168.787-19.716q-6.494-.647-12.988-1.281c-1.92-.188-1.907,2.813,0,3,52.5,5.146,104.87,11.3,157.2,17.884,74.686,9.393,149.3,19.339,223.9,29.385q121.046,16.3,242.026,33.092c79.75,11.065,159.47,22.34,239.23,33.325,73.988,10.19,148,20.768,222.219,29.131,3.867.436,7.737.879,11.616,1.192,1.925.156,1.914-2.845,0-3Z" transform="translate(-50.464 -36.844)" fill="#3f3d56"/><path d="M461.826,439.851S447.595,505.832,467,504.538s10.35-60.806,10.35-60.806Z" transform="translate(-50.464 -36.844)" fill="#a0616a"/><path d="M488.986,717.386l9.056,47.868,20.7-2.587-6.469-51.75Z" fill="#a0616a"/><path d="M593.779,670.811l5.175,34.931h27.168L620.947,673.4Z" fill="#a0616a"/><path d="M518.75,407.508s-21.993,42.693-14.231,148.78,7.762,207,7.762,207l55.631-3.881,15.525-263.923,60.806,228.992,40.106-3.881L674,496.776,641.655,389.395Z" transform="translate(-50.464 -36.844)" fill="#2f2e41"/><path d="M556.268,780.1s3.881-11.644-2.587-11.644H539.45s-15.525,28.462-24.581,31.05-37.518,27.169-10.35,29.756,68.568-11.644,68.568-16.819-3.881-27.169-3.881-27.169Z" transform="translate(-50.464 -36.844)" fill="#2f2e41"/><path d="M670.117,734.823s-23.783-6.578-22.241-2.642-3.633,15.58-3.633,15.58S631.3,821.5,670.117,815.035s10.35-62.1,10.35-62.1l-5.747-22.01Z" transform="translate(-50.464 -36.844)" fill="#2f2e41"/><circle cx="38.812" cy="38.812" r="38.812" transform="translate(472.167 13.593)" fill="#a0616a"/><path d="M535.569,109.948s6.469,37.518,2.587,45.281,31.05,23.287,31.05,23.287l18.112-43.987V109.948Z" transform="translate(-50.464 -36.844)" fill="#a0616a"/><path d="M556.268,153.935s-11.777,1.732-16.885-6.9-16.752,59.94-16.752,59.94,5.175,90.562-1.294,111.261-5.175,28.462-2.587,32.343,10.35-1.294,3.881,9.056-6.469,3.881-6.469,14.231-2.587,47.868-2.587,47.868L653.3,411.389,587.318,128.06S565.325,155.229,556.268,153.935Z" transform="translate(-50.464 -36.844)" fill="#3f3d56"/><path d="M610.606,142.292s53.043,7.762,55.631,19.406,54.337,335.078,27.169,351.9-115.143,29.756-119.024,12.937S549.8,166.873,587.319,128.061Z" transform="translate(-50.464 -36.844)" fill="#d0cde1"/><path d="M685.322,483.087H674.459s3.343-39.275,0-42.9c0,0-30.362-3.343-61,30.083,0,0,5.292-36.49,44.846-38.44,12.68-.624,20.008,4.418,24.108,11.56C691.108,458.53,685.322,483.087,685.322,483.087Z" transform="translate(-50.464 -36.844)" fill="#3f3d56"/><path d="M685.322,483.087H674.459s3.343-39.275,0-42.9l7.953,3.2C691.108,458.53,685.322,483.087,685.322,483.087Z" transform="translate(-50.464 -36.844)" opacity="0.15"/><path d="M621.535,457.461l-15.042,25.626h6.964S614.571,464.146,621.535,457.461Z" transform="translate(-50.464 -36.844)" fill="#3f3d56"/><path d="M621.535,457.461l-15.042,25.626h6.964S614.571,464.146,621.535,457.461Z" transform="translate(-50.464 -36.844)" opacity="0.15"/><path d="M749.945,591.442A26.6,26.6,0,0,1,739.5,613.865s-138.438,32.869-153.758,30.083a21.819,21.819,0,0,1-5.44-1.783c-12.211-5.794-19.908-21.615-19.908-21.615s-.231-4.089-.574-10.752c-.657-12.886-1.721-35.4-2.309-56.6-.579-20.941-.694-40.59.515-48.389,3.064-19.777,24.234-21.448,24.234-21.448L723.2,477.238a49.438,49.438,0,0,1,13.7,1.794c15.237,4.577,13.036,16.312,13.036,16.312S749.388,576.4,749.945,591.442Z" transform="translate(-50.464 -36.844)" fill="#575a89"/><path d="M736.909,479.031c-8.638,2.691-29.4,8.624-36.824,6.005-9.471-3.343-82.729-1.114-109.469,1.95s-17.27,75.487-17.27,75.487l-15.835-9.27c-.579-20.941-.694-40.59.515-48.389,3.064-19.777,24.234-21.448,24.234-21.448L723.2,477.237a49.436,49.436,0,0,1,13.7,1.794Z" transform="translate(-50.464 -36.844)" fill="#3f3d56"/><path d="M635.741,531S622.325,456.007,647,445.731l3.226.03s-7.8,10.306-4.735,29.247,1.393,62.116,1.393,62.116S637.412,542.7,635.741,531Z" transform="translate(-50.464 -36.844)" fill="#2f2e41"/><path d="M645.49,448.269s14.763-23.677,41.782-10.585,29.526,42.9,29.526,42.9S698.135,425.985,645.49,448.269Z" transform="translate(-50.464 -36.844)" fill="#2f2e41"/><path d="M668.284,497.218l-4.457-28.691,2.229-26.863,5.57,27.7,2.507,27.855Z" fill="#2f2e41"/><path d="M618.145,493.875l15.6-3.9,15.877,1.95v6.964l-14.484,4.457-16.992-1.672Z" fill="#2f2e41"/><path d="M577.8,631.553a43.5,43.5,0,0,0,2.5,10.613c-12.211-5.794-19.908-21.615-19.908-21.615s-.231-4.089-.574-10.752L570,614Z" transform="translate(-50.464 -36.844)" fill="#3f3d56"/><path d="M584.488,646.873a3.931,3.931,0,0,1-1.886-1.053C584.691,646.661,585.572,647.1,584.488,646.873Z" transform="translate(-50.464 -36.844)" fill="#2f2e41"/><path d="M539.375,144.232l-50.381,49.809,18.112,161.717s-36.225,191.473-15.525,191.473,18.112,2.587,21.993-11.644S539.375,144.232,539.375,144.232Z" transform="translate(-50.464 -36.844)" fill="#d0cde1"/><path d="M501.932,190.16l-12.938,3.881S477.35,203.1,478.644,222.5s-1.294,75.037-1.294,75.037-7.762,11.644-3.881,25.875l-18.112,124.2,40.106,6.469L509.694,389.4Z" transform="translate(-50.464 -36.844)" fill="#d0cde1"/><path d="M662.355,395.864s-15.525,81.505,0,76.331,34.931-62.1,21.994-71.156S662.355,395.864,662.355,395.864Z" transform="translate(-50.464 -36.844)" fill="#a0616a"/><path d="M522.539,93.8s-3.962-5.944-2.438-12.344a37.414,37.414,0,0,0,1.067-11.125s3.2-10.363,6.4-16.154,1.676-8.23,11.735-10.058,5.944-14.935,32.461-.762a7.777,7.777,0,0,0,8.077,3.048c5.486-1.067,7.468,6.553,7.468,6.553s3.658-2.134,5.029.914,11.151-1.829,11.151,18.745-11.129,38.952-11.129,38.952.816-34.608-17.32-38.113-37.643-13.716-42.367-.61A99.917,99.917,0,0,1,522.539,93.8Z" transform="translate(-50.464 -36.844)" fill="#2f2e41"/><path d="M275.776,520.607c-8.593,7.133-23.741,42.2-23.741,42.2a99.309,99.309,0,0,0,14.6.462l-1.7-9.309,6.336,8.938a40.041,40.041,0,0,0,7.294-1.476l-2.624-14.328,8.192,11.556c.061-.048.123-.095.182-.144,8.593-7.133,13.649-21.4,11.294-31.863S284.369,513.473,275.776,520.607Z" transform="translate(-50.464 -36.844)" fill="#00a9a5"/><path d="M504.776,676.607c-8.593,7.133-23.741,42.2-23.741,42.2a99.308,99.308,0,0,0,14.6.462l-1.7-9.309,6.336,8.938a40.03,40.03,0,0,0,7.294-1.476l-2.624-14.328,8.192,11.556c.061-.048.123-.095.182-.144,8.593-7.133,13.649-21.4,11.294-31.863S513.369,669.473,504.776,676.607Z" transform="translate(-50.464 -36.844)" fill="#00a9a5"/><path d="M471.144,348.978c-7.318,7.625-22.109,42.824-22.109,42.824a62.681,62.681,0,0,0,11.374-.78l-.551-8.865,4.2,8.116a30.536,30.536,0,0,0,5.827-2.042l-.847-13.643,5.434,10.493c.051-.052.1-.1.155-.155,7.318-7.624,12.471-21.853,11.508-31.78S478.463,341.354,471.144,348.978Z" transform="translate(-50.464 -36.844)" fill="#00a9a5"/><path d="M287.388,794.752c-10.191-2.8-48.185.98-48.185.98a62.685,62.685,0,0,0,6.107,9.626l7.53-4.71-5.131,7.564a30.535,30.535,0,0,0,4.573,4.149l11.589-7.249-6.634,9.78c.07.021.14.043.21.062,10.191,2.8,25.155.545,33.423-5.034S297.58,797.551,287.388,794.752Z" transform="translate(-50.464 -36.844)" fill="#3f3d56"/><path d="M315.388,778.752c-10.191-2.8-48.185.98-48.185.98a62.685,62.685,0,0,0,6.107,9.626l7.53-4.71-5.131,7.564a30.536,30.536,0,0,0,4.573,4.149l11.589-7.249-6.634,9.78c.07.021.14.043.21.062,10.191,2.8,25.155.545,33.423-5.034S325.58,781.551,315.388,778.752Z" transform="translate(-50.464 -36.844)" fill="#3f3d56"/><path d="M613.388,841.752c-10.191-2.8-48.185.98-48.185.98a62.682,62.682,0,0,0,6.107,9.626l7.53-4.71-5.131,7.564a30.537,30.537,0,0,0,4.573,4.15l11.589-7.249-6.634,9.78c.07.021.14.043.21.062,10.191,2.8,25.155.545,33.423-5.034S623.58,844.551,613.388,841.752Z" transform="translate(-50.464 -36.844)" fill="#3f3d56"/><path d="M315.388,819.752c-10.191-2.8-48.185.98-48.185.98a62.682,62.682,0,0,0,6.107,9.626l7.53-4.71-5.131,7.564a30.536,30.536,0,0,0,4.573,4.149l11.589-7.249-6.634,9.78c.07.021.14.043.21.062,10.191,2.8,25.155.545,33.423-5.034S325.58,822.551,315.388,819.752Z" transform="translate(-50.464 -36.844)" fill="#3f3d56"/><path d="M744.754,464.532c-3.121,4.8-5.1,16.884-6.288,27.384l5.882,6.27-6.308-2.234c-.776,7.859-1.08,13.993-1.08,13.993s25.323-5.485,31.325-14.709,5.6-23.574-.9-32.053S750.755,455.308,744.754,464.532Z" transform="translate(-50.464 -36.844)" fill="#00a9a5"/><path d="M771.1,641.54c-2.859,4.8-4.677,16.886-5.764,27.386l5.383,6.269-5.775-2.232c-.713,7.859-.993,13.993-.993,13.993s23.186-5.492,28.683-14.718,5.133-23.576-.814-32.053S776.6,632.315,771.1,641.54Z" transform="translate(-50.464 -36.844)" fill="#00a9a5"/><path d="M644.243,153.935S674,148.76,680.468,187.572s23.287,115.143,23.287,115.143l-4.62,116.468L655.886,404.92l1.294-89.268L635.187,182.4Z" transform="translate(-50.464 -36.844)" fill="#d0cde1"/><path d="M582.782,169.488,599.6,279.456l-3.881,93.149,18.113-90.562Z" opacity="0.15"/><path d="M765.776,115.607c-8.593,7.133-23.741,42.2-23.741,42.2a99.307,99.307,0,0,0,14.6.462l-1.7-9.309,6.336,8.938a40.038,40.038,0,0,0,7.294-1.476l-2.624-14.328,8.192,11.556c.061-.048.123-.1.182-.144,8.593-7.133,13.649-21.4,11.294-31.863S774.369,108.473,765.776,115.607Z" transform="translate(-50.464 -36.844)" fill="#00a9a5"/></g></svg>