<svg xmlns="http://www.w3.org/2000/svg" width="859.113" height="597.785" viewBox="0 0 859.113 597.785"><g transform="translate(0 -34.894)"><path d="M967.942,763.866c-10.593-.44-20.244-4.715-24.61-11.338q-.306-.465-.577-.943c-1.594-2.822-2.092-6.066-.349-8.847s6.1-4.893,10.468-4.454,7.785,3.926,5.976,6.686c-.4-5.578-.735-11.439,3.762-16.294a16.436,16.436,0,0,1,9.207-4.758c9.062-1.594,15.078,3.53,16.283,8.7.889,3.819-.339,7.7-1.562,11.479,3.769-4.457,12.732-6.44,19.6-4.335s10.673,8,8.328,12.9c-2.763,5.764-11.974,8.743-20.53,10.318C986.87,764.281,976.276,764.212,967.942,763.866Z" transform="translate(-170.444 -133.66)" fill="#f2f2f2"/><path d="M232.952,763.866c10.593-.44,20.244-4.715,24.609-11.338q.307-.465.577-.943c1.594-2.822,2.092-6.066.349-8.847s-6.1-4.893-10.468-4.454-7.786,3.926-5.976,6.686c.4-5.578.735-11.439-3.762-16.294a16.436,16.436,0,0,0-9.206-4.758c-9.062-1.594-15.078,3.53-16.283,8.7-.889,3.819.339,7.7,1.562,11.479-3.769-4.457-12.732-6.44-19.6-4.335s-10.674,8-8.328,12.9c2.763,5.764,11.974,8.743,20.53,10.318C214.023,764.281,224.617,764.212,232.952,763.866Z" transform="translate(-170.444 -133.66)" fill="#f2f2f2"/><rect width="859.113" height="3.443" transform="translate(0 629.236)" fill="#ccc"/><path d="M560.473,299.527a38.807,38.807,0,1,1,38.806-38.807A38.807,38.807,0,0,1,560.473,299.527Zm0-71.145a32.339,32.339,0,1,0,32.338,32.338,32.339,32.339,0,0,0-32.338-32.338Z" transform="translate(-170.444 -133.66)" fill="#00a9a5"/><path d="M559.2,212.212a3.234,3.234,0,0,1-3.234-3.234v-37.19a3.234,3.234,0,0,1,6.468,0v37.19a3.234,3.234,0,0,1-3.234,3.234Z" transform="translate(-170.444 -133.66)" fill="#00a9a5"/><path d="M508.731,262.681h-37.19a3.234,3.234,0,0,1,0-6.468h37.19a3.234,3.234,0,0,1,0,6.468Z" transform="translate(-170.444 -133.66)" fill="#00a9a5"/><path d="M644.554,262.681h-37.19a3.234,3.234,0,0,1,0-6.468h37.19a3.234,3.234,0,0,1,0,6.468Z" transform="translate(-170.444 -133.66)" fill="#00a9a5"/><path d="M606.342,227.322a3.234,3.234,0,0,1-2.252-5.555l15.574-15.11a3.234,3.234,0,1,1,4.5,4.642l-15.574,15.11a3.221,3.221,0,0,1-2.252.913Z" transform="translate(-170.444 -133.66)" fill="#00a9a5"/><path d="M511.369,227.322a3.223,3.223,0,0,1-2.252-.913L493.543,211.3a3.234,3.234,0,1,1,4.5-4.642l15.574,15.11a3.234,3.234,0,0,1-2.252,5.555Z" transform="translate(-170.444 -133.66)" fill="#00a9a5"/><path d="M499.029,315.7a3.235,3.235,0,0,1-2.32-5.487l15.574-16.038a3.234,3.234,0,0,1,4.641,4.507l-15.575,16.038a3.229,3.229,0,0,1-2.32.981Z" transform="translate(-170.444 -133.66)" fill="#00a9a5"/><path d="M625.15,318.93a3.218,3.218,0,0,1-2.314-.976l-18.808-19.272a3.233,3.233,0,1,1,4.628-4.516l18.808,19.272a3.233,3.233,0,0,1-2.314,5.492Z" transform="translate(-170.444 -133.66)" fill="#00a9a5"/><path d="M559.2,351.269a3.234,3.234,0,0,1-3.234-3.234v-37.19a3.234,3.234,0,0,1,6.468,0v37.19a3.234,3.234,0,0,1-3.234,3.234Z" transform="translate(-170.444 -133.66)" fill="#00a9a5"/><path d="M798.37,765.815H440.288c-77.252,0-140.1-63.906-140.1-142.458S363.037,480.9,440.288,480.9h25.475A173.714,173.714,0,0,1,528.2,411.011a169.271,169.271,0,0,1,91.134-26.659c89.593,0,164.269,70.452,171.219,160.913h7.823c59.858,0,108.557,49.469,108.557,110.275S858.229,765.815,798.37,765.815ZM440.287,486.9c-73.943,0-134.1,61.214-134.1,136.458s60.157,136.458,134.1,136.458H798.37c56.55,0,102.557-46.777,102.557-104.275S854.92,551.266,798.37,551.266H784.925l-.172-2.817c-5.406-88.651-78.069-158.1-165.424-158.1-62.9,0-121.383,37.228-148.983,94.843l-.816,1.7Z" transform="translate(-170.444 -133.66)" fill="#3f3d56"/></g></svg>