<svg xmlns="http://www.w3.org/2000/svg" width="88" height="136" viewBox="0 0 88 136"><g transform="translate(-688.999 -1261.5)"><path d="M489.592,417h-55a16.519,16.519,0,0,1-16.5-16.5v-103a16.519,16.519,0,0,1,16.5-16.5h55a16.519,16.519,0,0,1,16.5,16.5v103a16.519,16.519,0,0,1-16.5,16.5Z" transform="translate(270.907 980.5)" fill="#f2f2f2"/><path d="M478.764,374.057l-.779-1.842a10,10,0,1,0-13.141-13.027L463,358.425a12,12,0,1,1,15.768,15.631Z" transform="translate(270.907 980.5)" fill="#3f3d56"/><path d="M480.256,393H446.874a13,13,0,1,1,0-26l2.553,0a15.707,15.707,0,0,1,14.138-9,15.866,15.866,0,0,1,15.7,15h.994a10,10,0,1,1,0,20Zm-33.382-24a11,11,0,1,0,0,22l33.382,0a8,8,0,1,0,0-16l-1.964,0a1,1,0,0,1-1-1,13.881,13.881,0,0,0-13.727-14,13.725,13.725,0,0,0-12.575,8.395,1,1,0,0,1-.919.605Z" transform="translate(270.907 980.5)" fill="#3f3d56"/><path d="M491.093,312h-58a8,8,0,0,1,0-16h58a8,8,0,0,1,0,16Z" transform="translate(270.907 980.5)" fill="#00a9a5"/></g></svg>